<svg width="53" height="21" viewBox="0 0 53 21" fill="none" xmlns="http://www.w3.org/2000/svg">
<g clipPath="url(#clip0_32_3225)">
<path d="M42.7029 0.485107C37.042 0.485107 32.4329 4.97827 32.4329 10.5C32.4329 16.0217 37.042 20.5149 42.7029 20.5149C48.3639 20.5149 52.973 16.0217 52.973 10.5C52.973 4.97827 48.3677 0.485107 42.7029 0.485107ZM48.4528 10.0978V10.9137C48.4528 12.4952 48.2943 13.632 47.9694 14.3435C47.6756 15.0473 47.0182 15.5345 46.2603 15.6157L45.7809 15.6853V5.58148L46.0863 5.62401C46.3067 5.65495 46.5233 5.70135 46.7321 5.76322C46.8713 5.91402 47.0144 6.06096 47.1613 6.20789C47.459 6.5095 47.7684 6.7879 48.0738 7.04698C48.3677 8.04073 48.4992 9.06928 48.4528 10.0978ZM50.2006 8.09486C49.1643 7.53419 48.2208 6.81884 47.4049 5.97202C47.2464 5.81348 47.0917 5.65108 46.9409 5.48868C46.2874 4.79653 45.7306 4.01545 45.2821 3.17636C44.8838 2.38368 44.7948 1.76113 45.0423 1.5098C45.0694 1.48273 45.1042 1.45953 45.139 1.44019C45.8041 1.61033 46.4498 1.85007 47.0646 2.15554C47.0298 2.17101 46.9989 2.19421 46.9718 2.22128C46.5736 2.61955 47.2232 3.90718 48.418 5.102C49.6128 6.29683 50.9004 6.94257 51.2987 6.54817C51.3296 6.51723 51.3529 6.47856 51.3722 6.4399C51.6313 6.96191 51.8401 7.50325 51.9947 8.06393C51.9831 8.16447 51.9367 8.26113 51.8671 8.3346C51.6197 8.58207 51.0126 8.49701 50.2354 8.1142L50.2006 8.09486ZM42.7029 19.8652C37.3978 19.8652 33.0825 15.666 33.0825 10.5C33.0825 5.33401 37.3978 1.13472 42.7029 1.13472C43.3835 1.13472 44.064 1.20432 44.733 1.34353C44.4352 1.73407 44.5203 2.41848 44.9766 3.32717C45.3633 4.06571 45.8427 4.75786 46.3957 5.38427H46.3879L42.0843 4.72306V5.044L43.0935 5.19094V16.0758L42.0843 16.2228V16.5437L46.0631 15.9328C47.5673 15.7008 48.6577 15.1826 49.4117 14.3938C50.1851 13.5818 50.5602 12.2864 50.5602 10.4768C50.5679 9.82717 50.5022 9.18142 50.363 8.54727C50.7032 8.70581 51.0667 8.79861 51.4418 8.81795C51.5694 8.81795 51.7009 8.79861 51.8207 8.75608C51.929 8.71741 52.0295 8.65554 52.1107 8.57434C52.1146 8.57047 52.1185 8.56661 52.1185 8.56274C52.2577 9.20075 52.3273 9.85037 52.3273 10.5C52.3234 15.6621 48.0081 19.8652 42.7029 19.8652Z" fill="white"/>
<path d="M1.83157 6.27368H1.33276V10.1559H1.83157V6.27368Z" fill="white"/>
<path d="M1.58027 5.50025C1.68853 5.50025 1.7968 5.45772 1.87027 5.38038C1.94761 5.30305 1.99401 5.19865 1.99014 5.09038C1.99014 4.86224 1.80454 4.67664 1.5764 4.67664C1.46813 4.67664 1.36373 4.71917 1.29026 4.7965C1.21292 4.87384 1.16652 4.97824 1.17039 5.09038C1.17039 5.19865 1.21292 5.30305 1.29026 5.38038C1.36759 5.45772 1.472 5.50025 1.58027 5.50025Z" fill="white"/>
<path d="M5.5011 10.2911C6.01151 10.2989 6.51419 10.1597 6.95113 9.89285L7.48474 10.5734H8.13049L7.35327 9.58738C7.64328 9.32057 7.87528 9.0035 8.03769 8.64389C8.18849 8.29202 8.26196 7.91308 8.25809 7.53414C8.27356 6.02611 7.06713 4.79261 5.5591 4.77328C5.5359 4.77328 5.5127 4.77328 5.49337 4.77328C5.00616 4.76941 4.52668 4.89315 4.10521 5.13676C3.67987 5.38036 3.33573 5.73223 3.09985 6.15371C2.85625 6.58292 2.72865 7.06626 2.73251 7.55734C2.72091 8.28429 3.01092 8.98803 3.53293 9.49071C4.05107 10.0166 4.76642 10.3066 5.5011 10.2911ZM3.56773 6.40505C3.96214 5.71677 4.69682 5.28756 5.49337 5.28369C5.88391 5.28369 6.27059 5.38809 6.60699 5.58916C6.94727 5.7825 7.22954 6.06091 7.42674 6.39731C7.62395 6.74145 7.72448 7.132 7.71675 7.53027C7.72835 8.15282 7.48088 8.7483 7.03233 9.1775L6.09271 7.99041H5.4547L6.62246 9.47524C6.27445 9.67632 5.88004 9.78458 5.4779 9.78072C4.25988 9.78072 3.27386 8.7947 3.26999 7.58054C3.26999 7.57281 3.26999 7.56507 3.26999 7.55734C3.26999 7.15133 3.37053 6.75692 3.56773 6.40505Z" fill="white"/>
<path d="M10.8798 7.96729H8.91553V8.40423H10.8798V7.96729Z" fill="white"/>
<path d="M14.294 9.64932H12.2717V4.90869H11.7458V10.1597H14.2902L14.294 9.64932Z" fill="white"/>
<path d="M18.3271 8.4313L19.1545 10.1597H19.7229L17.2753 4.90869H17.1477L14.6614 10.1559H15.2453L16.065 8.42743H18.3271V8.4313ZM17.2057 6.02231L18.1028 7.92475H16.3086L17.2057 6.02231Z" fill="white"/>
<path d="M22.6308 9.86973C22.9092 9.61452 23.0678 9.25492 23.0639 8.87598C23.06 8.5937 22.9711 8.31916 22.8087 8.08716C22.5496 7.73915 22.2325 7.43368 21.8729 7.19007C21.4901 6.9078 21.262 6.72993 21.1962 6.6642C21.088 6.56366 20.999 6.44379 20.9372 6.31232C20.8908 6.20792 20.8676 6.09579 20.8676 5.97978C20.8637 5.80191 20.9372 5.62791 21.0686 5.50417C21.2079 5.3727 21.3973 5.3031 21.5868 5.31084C21.7492 5.31084 21.9039 5.35337 22.0431 5.43457C22.2403 5.57764 22.4104 5.75165 22.5496 5.95272L22.9788 5.62791C22.8009 5.35724 22.5651 5.1291 22.2944 4.95123C22.0817 4.83136 21.842 4.76562 21.5984 4.76562C21.3703 4.76562 21.1498 4.81976 20.9488 4.92803C20.7554 5.02856 20.5969 5.18323 20.4848 5.3727C20.3765 5.56217 20.3185 5.77871 20.3224 5.99912C20.3224 6.28912 20.4229 6.5714 20.6008 6.8034C20.8444 7.07407 21.1189 7.31381 21.4167 7.52261C21.7569 7.75849 22.0585 8.04076 22.3176 8.36557C22.4297 8.51637 22.4916 8.69424 22.4955 8.88371C22.4955 9.03838 22.4529 9.18918 22.3756 9.32452C22.2905 9.46759 22.1668 9.57972 22.0237 9.65319C21.8729 9.73439 21.6989 9.77693 21.5288 9.77693C21.1189 9.77693 20.7554 9.48692 20.4422 8.91078L19.9976 9.17758C20.1638 9.51786 20.4113 9.81173 20.7168 10.0321C20.9758 10.2023 21.2775 10.2912 21.5829 10.2873C21.9735 10.2951 22.3524 10.1443 22.6308 9.86973Z" fill="white"/>
<path d="M24.626 4.90479H24.1001V10.1558H24.626V4.90479Z" fill="white"/>
<path d="M29.1695 4.90869H28.4658L26.3661 6.88073V4.90869H25.8325V10.1597H26.3661V7.71208L28.6668 10.1597H29.3667L26.6484 7.26354L29.1695 4.90869Z" fill="white"/>
<path d="M3.56011 12.0467C2.63209 12.0429 1.77367 12.5417 1.32126 13.3498C1.08926 13.7558 0.973254 14.2121 0.973254 14.6761C0.961653 15.3644 1.23619 16.0295 1.735 16.509C2.22608 17.0078 2.90276 17.2823 3.60264 17.2668C4.29865 17.2784 4.9676 17.0039 5.45481 16.5051C6.4679 15.4765 6.4679 13.8254 5.45481 12.7969C4.94827 12.3019 4.26772 12.0274 3.56011 12.0467ZM5.42001 15.7356C5.23827 16.0565 4.97534 16.3234 4.65053 16.5051C4.32572 16.6907 3.95451 16.7874 3.57944 16.7874C3.02263 16.7951 2.48902 16.5747 2.09848 16.1764C1.69634 15.782 1.47593 15.2407 1.48753 14.6761C1.48366 14.2972 1.57647 13.9221 1.76594 13.5896C1.94767 13.2686 2.21448 12.998 2.53929 12.8162C2.85636 12.6267 3.21597 12.5301 3.58331 12.5301C3.95838 12.5301 4.32186 12.6306 4.64666 12.8162C4.97147 12.998 5.23827 13.2609 5.42388 13.5818C5.60948 13.9066 5.70615 14.2778 5.69842 14.6529C5.70228 15.0319 5.60562 15.4069 5.42001 15.7356Z" fill="white"/>
<path d="M10.4854 12.1743H9.91313L8.71444 14.1077L7.52349 12.1743H6.94347L8.42444 14.5794L6.83521 17.1431H7.41522L8.71058 15.0473L10.0021 17.1431H10.5821L9.00058 14.5756L10.4854 12.1743Z" fill="white"/>
<path d="M12.871 14.2237L11.5989 12.1743H11.0266L12.6313 14.7689V17.1431H13.1224V14.7689L14.6962 12.1743H14.12L12.871 14.2237Z" fill="white"/>
<path d="M18.4625 15.2405H20.0479C19.9937 15.6814 19.7656 16.0835 19.4176 16.3619C19.0503 16.6558 18.5901 16.8104 18.1184 16.795C17.7124 16.7988 17.3141 16.6983 16.9545 16.505C16.6103 16.3194 16.3242 16.0448 16.1231 15.7123C15.9259 15.3914 15.8215 15.024 15.8215 14.6451C15.8215 14.2777 15.9221 13.9181 16.1115 13.6049C16.3087 13.2762 16.591 13.0056 16.9313 12.8277C17.2716 12.6382 17.6544 12.5416 18.0449 12.5416C18.3774 12.5454 18.7061 12.6189 19.0077 12.7504C19.348 12.8973 19.6573 13.11 19.9203 13.369L20.3069 13.0056C19.9937 12.6962 19.6225 12.4488 19.2204 12.2748C18.8415 12.1201 18.4393 12.0427 18.0294 12.0466C17.5422 12.0389 17.0589 12.1588 16.6297 12.3908C16.2237 12.6112 15.8873 12.9398 15.6553 13.342C15.4194 13.7403 15.2995 14.1927 15.2995 14.6567C15.2918 15.2715 15.5122 15.867 15.9182 16.3271C16.4634 16.9574 17.2677 17.3054 18.099 17.2667C18.7719 17.2977 19.4253 17.0541 19.9125 16.59C20.3804 16.099 20.6279 15.4378 20.597 14.7611H18.4548V15.2405H18.4625Z" fill="white"/>
<path d="M21.552 17.143H24.3786V16.6558H22.0469V14.7031H24.3786V14.2159H22.0469V12.6576H24.3979V12.1704H21.5481L21.552 17.143Z" fill="white"/>
<path d="M28.6783 15.9831L25.3722 12.1743H25.2639V17.1431H25.7782V13.3807L29.0572 17.1431H29.1693V12.1743H28.6783V15.9831Z" fill="white"/>
<path d="M41.0906 11.0723C40.3172 10.4614 39.366 10.1288 38.38 10.1211V10.0902C39.2036 9.93162 39.9692 9.55655 40.6034 9.00747C41.1757 8.50866 41.5043 7.78171 41.5005 7.01996C41.5005 5.12525 40.2476 4.52591 38.1093 5.11752C37.3282 5.28379 36.6206 5.6898 36.0793 6.27755C35.6965 6.72222 35.4838 7.28677 35.4838 7.87451C35.4683 8.17612 35.5457 8.47386 35.7003 8.73293C35.8357 8.95333 36.0909 9.06934 36.3461 9.03067C36.6284 9.01133 36.8913 8.876 37.0692 8.65559C37.2548 8.43906 37.3592 8.16065 37.3592 7.87451C37.3669 7.63091 37.3321 7.38343 37.2664 7.14756L36.9338 7.20943C36.8874 7.04316 36.8642 6.86529 36.8681 6.69129C36.8797 6.45155 36.9416 6.21954 37.0537 6.00687C37.1813 5.74393 37.4249 5.55833 37.7072 5.49646C37.9933 5.39979 38.3027 5.55446 38.3993 5.84447C38.4032 5.85607 38.4071 5.86767 38.4109 5.87927C38.5888 6.47475 38.6661 7.10116 38.6275 7.72371C38.6275 8.60533 38.5037 9.22787 38.2679 9.58361C38.0359 9.93162 37.5602 10.1559 36.8797 10.2564L36.9145 10.5735C37.2625 10.531 37.6066 10.4652 37.943 10.3724C38.2949 10.5851 38.5695 10.906 38.728 11.285C38.9484 11.9191 39.0451 12.5919 39.0103 13.2648C39.0451 13.9453 38.9445 14.6297 38.7164 15.2716C38.5579 15.6737 38.1016 15.8748 37.6956 15.7163L37.684 15.7124C37.0808 15.608 36.6593 15.0589 36.7134 14.4518C36.7134 14.2972 36.7366 14.1425 36.7792 13.9956L37.1272 14.0574C37.1929 13.8254 37.2238 13.5818 37.22 13.3382C37.22 13.056 37.1233 12.7814 36.9454 12.5649C36.7753 12.3483 36.5162 12.213 36.2417 12.1937C35.9865 12.1589 35.7313 12.2787 35.5921 12.4953C35.4219 12.793 35.3446 13.1294 35.3678 13.4697C35.3639 13.895 35.4877 14.3088 35.7197 14.6645C35.9323 15.0164 36.2262 15.3141 36.5742 15.5307C36.9338 15.7472 37.3244 15.9096 37.7304 16.0217C38.9252 16.3543 39.9615 16.3272 40.7774 15.8941C41.6551 15.4263 42.1191 14.5949 42.1191 13.4194C42.1501 12.5262 41.7711 11.6639 41.0906 11.0723Z" fill="white"/>
</g>
<defs>
<clipPath id="clip0_32_3225">
<rect width="52" height="20.0297" fill="white" transform="translate(0.973145 0.485107)"/>
</clipPath>
</defs>
</svg>
