<svg width="53" height="14" viewBox="0 0 53 14" fill="none" xmlns="http://www.w3.org/2000/svg">
<g clipPath="url(#clip0_21_1769)">
<path d="M50.1217 1.91663H50.7451V2.12799H50.5393V3.04441H50.3216V2.12799H50.1213L50.1217 1.91663Z" fill="#151515"/>
<path d="M51.0015 1.91663H51.2107L51.4721 2.70339L51.7362 1.91663H51.9453L52.1344 3.04463H51.9267L51.8058 2.33223L51.5662 3.04463H51.3771L51.1396 2.33223L51.0157 3.04463H50.8064L51.0015 1.91663Z" fill="#151515"/>
<path d="M28.2477 2.62432C28.3348 2.62325 28.4212 2.64019 28.5015 2.67408C28.5817 2.70797 28.6541 2.75808 28.7141 2.82127C28.7772 2.88349 28.827 2.95787 28.8604 3.03991C28.8939 3.12194 28.9104 3.20992 28.9088 3.2985C28.9103 3.38606 28.894 3.47301 28.8609 3.55408C28.8278 3.63515 28.7785 3.70865 28.7162 3.77012C28.657 3.83262 28.5855 3.88222 28.5062 3.91578C28.4269 3.94935 28.3415 3.96617 28.2554 3.96518C28.1675 3.96646 28.0803 3.94944 27.9993 3.91519C27.9184 3.88095 27.8454 3.83024 27.7851 3.76628C27.7219 3.70302 27.672 3.62765 27.6386 3.54467C27.6051 3.4617 27.5887 3.37282 27.5905 3.28337C27.5903 3.10886 27.6594 2.94143 27.7827 2.81785C27.9059 2.69428 28.0732 2.62467 28.2477 2.62432ZM27.7307 4.32121H28.7647V8.44226H27.7307V4.32121Z" fill="#151515"/>
<path d="M34.5977 7.62798L35.5675 8.88163H34.3119L33.8192 8.24755C33.4013 8.47334 32.9326 8.58853 32.4577 8.58217C31.6207 8.58217 30.9255 8.29368 30.3719 7.7167C30.0584 7.3978 29.822 7.01144 29.6807 6.58717C29.5394 6.16289 29.4971 5.71193 29.5568 5.26877C29.6166 4.8256 29.7769 4.40196 30.0254 4.03025C30.274 3.65853 30.6043 3.34858 30.991 3.12409C31.4313 2.86439 31.9335 2.72828 32.4446 2.73012C33.2355 2.73012 33.9145 3.0155 34.4819 3.58625C35.0492 4.157 35.3328 4.85267 35.3329 5.67328C35.3455 6.39467 35.0826 7.09374 34.5977 7.62798ZM33.9349 6.77141C34.1573 6.44574 34.275 6.0599 34.272 5.66554C34.2771 5.4171 34.2324 5.17014 34.1406 4.93923C34.0488 4.70832 33.9117 4.49812 33.7374 4.32101C33.5725 4.14357 33.3722 4.00268 33.1495 3.90743C32.9268 3.81218 32.6866 3.76469 32.4444 3.76802C32.201 3.7622 31.9591 3.80701 31.7339 3.8996C31.5087 3.99218 31.3052 4.13053 31.1363 4.30588C30.7849 4.66452 30.6092 5.12032 30.6093 5.67328C30.6093 6.28945 30.8306 6.7768 31.2733 7.13534C31.6047 7.41027 32.0226 7.55919 32.4532 7.55578C32.6988 7.5573 32.9419 7.50684 33.1665 7.40772L32.1688 6.12403H33.4341L33.9349 6.77141Z" fill="#151515"/>
<path d="M36.3628 5.9082H38.287V6.87045H36.3628V5.9082Z" fill="#151515"/>
<path d="M39.5901 2.87048H40.6504V7.43089H42.1958V8.44225H39.5901V2.87048Z" fill="#151515"/>
<path d="M43.2924 2.62432C43.3795 2.62324 43.4659 2.64019 43.5462 2.67408C43.6264 2.70797 43.6988 2.75808 43.7588 2.82127C43.8219 2.88349 43.8717 2.95787 43.9051 3.0399C43.9386 3.12194 43.955 3.20992 43.9535 3.2985C43.955 3.38606 43.9387 3.473 43.9055 3.55407C43.8724 3.63514 43.8232 3.70864 43.7609 3.77012C43.7016 3.83262 43.6302 3.88221 43.5509 3.91577C43.4716 3.94934 43.3862 3.96616 43.3001 3.96518C43.2122 3.96646 43.125 3.94944 43.0441 3.9152C42.9631 3.88096 42.8901 3.83024 42.8298 3.76628C42.7665 3.70303 42.7167 3.62765 42.6832 3.54468C42.6498 3.4617 42.6334 3.37282 42.6351 3.28337C42.635 3.10884 42.7041 2.94139 42.8274 2.81782C42.9506 2.69424 43.1179 2.62464 43.2924 2.62432ZM42.7751 4.32121H43.8097V8.44227H42.7757L42.7751 4.32121Z" fill="#151515"/>
<path d="M44.2566 4.32119H44.624C44.6265 3.78088 44.6353 3.46145 44.6505 3.36289C44.66 3.25848 44.6902 3.157 44.7393 3.06437C44.7884 2.97173 44.8554 2.88981 44.9365 2.82336C45.0994 2.69076 45.3298 2.62447 45.6278 2.62451C45.8769 2.63127 46.123 2.68126 46.355 2.77224V3.56007C46.236 3.52217 46.1124 3.5005 45.9876 3.49566C45.8664 3.49566 45.778 3.52091 45.7224 3.57141C45.6821 3.60916 45.6619 3.68738 45.6619 3.80608L45.6581 4.32119H46.3134V5.19617H45.658V8.44224H44.624V5.19617H44.2566V4.32119Z" fill="#151515"/>
<path d="M51.048 6.6809H47.7261C47.7629 6.95355 47.8999 7.20272 48.1105 7.37973C48.3189 7.55275 48.5847 7.63924 48.9079 7.6392C49.0926 7.64185 49.276 7.60734 49.4471 7.53772C49.6183 7.4681 49.7737 7.3648 49.9041 7.23394L50.7752 7.64298C50.5778 7.93384 50.3091 8.16923 49.9948 8.32668C49.6918 8.47441 49.332 8.54828 48.9153 8.54828C48.2688 8.54828 47.7423 8.34433 47.3357 7.93644C46.9291 7.52855 46.7258 7.01784 46.7258 6.40429C46.7258 5.77547 46.9285 5.25339 47.3337 4.83805C47.739 4.4227 48.2472 4.21505 48.8584 4.21509C49.5073 4.21509 50.035 4.42274 50.4416 4.83805C50.8482 5.25335 51.0516 5.80199 51.0516 6.48394L51.048 6.6809ZM50.0139 5.86655C49.9472 5.639 49.8046 5.44115 49.6099 5.30594C49.4056 5.16102 49.1602 5.08536 48.9098 5.09007C48.6371 5.08509 48.3703 5.1703 48.151 5.33247C48.0144 5.43355 47.8879 5.61154 47.7716 5.86643L50.0139 5.86655Z" fill="#151515"/>
<path d="M28.6824 11.5193L28.6374 11.4682L28.1433 12.0536H27.5906L28.3404 11.2009L27.5998 10.3928H28.1085L28.6824 11.0146V10.3928H29.099V11.0146L29.6708 10.3928H30.1817L29.4419 11.2021L30.1907 12.0536H29.638L29.143 11.467L29.099 11.5193V12.0536H28.6824V11.5193Z" fill="#151515"/>
<path d="M30.7062 12.0536H30.4849V10.3928H30.8909V11.3682L31.7411 10.3928H31.9413V12.0536H31.5353V11.098L30.7062 12.0536Z" fill="#151515"/>
<path d="M32.4873 12.0536V10.3928H33.1544C33.3731 10.3928 33.5217 10.4358 33.6001 10.5218C33.6755 10.6004 33.7176 10.7052 33.7176 10.8141C33.7176 10.9759 33.6372 11.0924 33.4764 11.1637C33.6962 11.2389 33.8061 11.3809 33.8061 11.5895C33.8101 11.6901 33.7794 11.789 33.7192 11.8696C33.6638 11.9416 33.5863 11.9934 33.4986 12.0169C33.3762 12.0449 33.2508 12.0572 33.1253 12.0536H32.4873ZM32.904 11.0462H33.065C33.1224 11.0498 33.1791 11.0316 33.2236 10.995C33.2405 10.9812 33.2543 10.9639 33.264 10.9443C33.2736 10.9246 33.2789 10.9032 33.2795 10.8813C33.2811 10.8547 33.2771 10.8281 33.2679 10.8031C33.2587 10.7782 33.2444 10.7554 33.2259 10.7362C33.2092 10.7195 33.1894 10.7064 33.1675 10.6975C33.1457 10.6886 33.1223 10.6841 33.0987 10.6844L33.045 10.6859H32.904V11.0462ZM32.904 11.733H33.1137C33.1449 11.7363 33.1764 11.733 33.2061 11.7231C33.2359 11.7132 33.2632 11.6971 33.2861 11.6758C33.316 11.6457 33.3338 11.6058 33.3362 11.5635C33.336 11.5091 33.3161 11.4565 33.2802 11.4155C33.2432 11.3708 33.176 11.3484 33.0788 11.3483H32.9042L32.904 11.733Z" fill="#151515"/>
<path d="M35.0653 10.35C35.2204 10.3496 35.3728 10.3901 35.5072 10.4676C35.6408 10.5429 35.7519 10.6524 35.829 10.785C35.9061 10.9175 35.9465 11.0682 35.946 11.2216C35.9466 11.3758 35.9063 11.5274 35.8292 11.661C35.7541 11.7945 35.6441 11.9051 35.5109 11.9808C35.3757 12.0578 35.2224 12.0976 35.0667 12.096C34.9531 12.0977 34.8403 12.076 34.7354 12.0323C34.6305 11.9886 34.5358 11.9238 34.457 11.8419C34.3741 11.7576 34.3091 11.6575 34.2657 11.5475C34.2223 11.4376 34.2016 11.32 34.2046 11.2018C34.2077 11.0837 34.2345 10.9673 34.2835 10.8598C34.3325 10.7522 34.4026 10.6556 34.4897 10.5757C34.6456 10.4295 34.8516 10.3487 35.0653 10.35ZM35.0721 10.7423C35.0118 10.7408 34.9519 10.752 34.8962 10.7752C34.8405 10.7985 34.7903 10.8332 34.749 10.8772C34.7057 10.9234 34.672 10.9778 34.6498 11.0371C34.6276 11.0965 34.6174 11.1596 34.6198 11.2229C34.6142 11.3523 34.6602 11.4785 34.7477 11.5739C34.789 11.6179 34.8392 11.6527 34.895 11.6758C34.9507 11.699 35.0107 11.7101 35.0711 11.7083C35.1319 11.7099 35.1923 11.6986 35.2484 11.6751C35.3045 11.6517 35.3551 11.6167 35.3967 11.5724C35.4802 11.4757 35.5263 11.3522 35.5267 11.2245C35.5271 11.0967 35.4818 10.973 35.399 10.8757C35.357 10.8317 35.3062 10.797 35.2498 10.774C35.1935 10.7511 35.1329 10.7402 35.0721 10.7423Z" fill="#151515"/>
<path d="M38.075 11.3437H36.7364C36.7511 11.4536 36.8064 11.5541 36.8913 11.6253C36.9824 11.6975 37.0965 11.7346 37.2126 11.7299C37.2871 11.731 37.361 11.7171 37.4299 11.689C37.4989 11.661 37.5615 11.6194 37.6141 11.5667L37.9651 11.7315C37.8856 11.8487 37.7773 11.9435 37.6507 12.007C37.5144 12.0695 37.3656 12.1001 37.2157 12.0963C37.0984 12.1008 36.9814 12.0813 36.8719 12.0389C36.7625 11.9965 36.6628 11.9321 36.5792 11.8498C36.4983 11.769 36.4348 11.6726 36.3926 11.5665C36.3503 11.4603 36.3302 11.3466 36.3334 11.2324C36.3298 11.1161 36.3496 11.0004 36.3917 10.8919C36.4337 10.7835 36.4971 10.6847 36.5782 10.6012C36.6575 10.519 36.7531 10.4542 36.8589 10.411C36.9647 10.3678 37.0783 10.347 37.1925 10.3501C37.3104 10.3456 37.428 10.3656 37.5378 10.4088C37.6477 10.452 37.7473 10.5175 37.8305 10.6012C37.9943 10.7687 38.0762 10.9897 38.0763 11.2645L38.075 11.3437ZM37.6583 11.0156C37.6314 10.9239 37.5739 10.8441 37.4954 10.7896C37.4131 10.7313 37.3143 10.7008 37.2134 10.7026C37.1034 10.7006 36.9959 10.7349 36.9074 10.8003C36.8396 10.8584 36.7871 10.9324 36.7545 11.0156H37.6583Z" fill="#151515"/>
<path d="M39.815 11.35V11.0524H39.8975C39.9491 11.0536 40 11.0398 40.044 11.0126C40.0649 10.9988 40.0818 10.9796 40.0928 10.9571C40.1038 10.9345 40.1086 10.9094 40.1066 10.8844C40.1072 10.8606 40.1025 10.837 40.0929 10.8152C40.0833 10.7935 40.069 10.7741 40.051 10.7585C40.0133 10.7253 39.9645 10.7075 39.9143 10.7089C39.8213 10.7179 39.7325 10.7522 39.6576 10.8081L39.4928 10.5212C39.6279 10.4102 39.7974 10.3498 39.9722 10.3502C40.1168 10.3447 40.2589 10.3892 40.3746 10.4761C40.4263 10.516 40.4677 10.5676 40.4955 10.6266C40.5233 10.6857 40.5365 10.7506 40.5342 10.8158C40.5342 10.9604 40.4568 11.0774 40.3021 11.1668C40.5087 11.2431 40.612 11.381 40.612 11.5805C40.6132 11.6513 40.5981 11.7214 40.5679 11.7854C40.5377 11.8495 40.4933 11.9057 40.4379 11.9499C40.3218 12.0476 40.1615 12.0965 39.957 12.0964C39.7543 12.1042 39.5558 12.0368 39.3997 11.9073L39.6302 11.6173C39.7095 11.6833 39.8081 11.7218 39.9112 11.7272C39.972 11.7305 40.0319 11.7124 40.0807 11.6761C40.1008 11.6605 40.1168 11.6404 40.1277 11.6175C40.1386 11.5946 40.144 11.5694 40.1434 11.544C40.1435 11.5186 40.1383 11.4934 40.1282 11.47C40.1181 11.4466 40.1033 11.4255 40.0846 11.4082C40.063 11.3882 40.0376 11.3728 40.0099 11.3628C39.9822 11.3528 39.9527 11.3486 39.9233 11.3502L39.815 11.35Z" fill="#151515"/>
<path d="M41.4833 10.3928V10.576C41.5531 10.5044 41.636 10.4469 41.7274 10.4065C41.8162 10.3686 41.9118 10.3494 42.0083 10.35C42.1127 10.3488 42.2161 10.3702 42.3114 10.4126C42.4068 10.455 42.4919 10.5175 42.5609 10.5958C42.7158 10.7684 42.7974 10.9945 42.7883 11.2262C42.795 11.456 42.7105 11.6791 42.5533 11.8467C42.4835 11.9255 42.3977 11.9886 42.3016 12.0316C42.2055 12.0746 42.1014 12.0967 41.9961 12.0963C41.9046 12.097 41.8139 12.0796 41.7292 12.0451C41.6377 12.0051 41.5544 11.9485 41.4835 11.8782V12.6613H41.0698V10.3931L41.4833 10.3928ZM41.9213 10.7347C41.8605 10.733 41.8 10.7441 41.7437 10.7672C41.6875 10.7904 41.6367 10.825 41.5947 10.869C41.5508 10.916 41.5168 10.9713 41.4945 11.0315C41.4722 11.0918 41.4622 11.1559 41.465 11.2201C41.4591 11.3519 41.5058 11.4806 41.5947 11.578C41.6363 11.6226 41.687 11.6579 41.7433 11.6814C41.7996 11.705 41.8603 11.7163 41.9213 11.7147C41.9817 11.7158 42.0416 11.7039 42.097 11.6799C42.1524 11.656 42.2021 11.6204 42.2426 11.5756C42.3264 11.4776 42.3727 11.3529 42.3731 11.2238C42.3735 11.0948 42.3281 10.9698 42.2449 10.8712C42.2038 10.8267 42.1537 10.7915 42.0979 10.768C42.042 10.7444 41.9818 10.7331 41.9213 10.7347Z" fill="#151515"/>
<path d="M44.922 11.3437H43.5833C43.5981 11.4536 43.6533 11.554 43.7382 11.6253C43.8294 11.6975 43.9434 11.7346 44.0596 11.7299C44.134 11.731 44.2079 11.7171 44.2769 11.689C44.3458 11.661 44.4084 11.6194 44.461 11.5667L44.8121 11.7315C44.7325 11.8487 44.6243 11.9436 44.4976 12.007C44.3613 12.0695 44.2125 12.1001 44.0626 12.0963C43.9453 12.1008 43.8283 12.0813 43.7189 12.0389C43.6094 11.9965 43.5098 11.9321 43.4261 11.8498C43.3453 11.769 43.2818 11.6726 43.2395 11.5665C43.1972 11.4603 43.1771 11.3466 43.1803 11.2324C43.1768 11.1161 43.1966 11.0003 43.2387 10.8919C43.2808 10.7835 43.3443 10.6846 43.4253 10.6012C43.5047 10.519 43.6003 10.4542 43.7061 10.411C43.8119 10.3678 43.9255 10.347 44.0397 10.3501C44.1577 10.3456 44.2753 10.3656 44.3851 10.4088C44.4949 10.452 44.5946 10.5176 44.6778 10.6012C44.8416 10.7687 44.9235 10.9897 44.9235 11.2645L44.922 11.3437ZM44.5052 11.0156C44.4784 10.9239 44.4209 10.8441 44.3424 10.7896C44.2601 10.7313 44.1612 10.7008 44.0603 10.7026C43.9504 10.7006 43.8428 10.7349 43.7544 10.8003C43.6865 10.8584 43.634 10.9324 43.6015 11.0156H44.5052Z" fill="#151515"/>
<path d="M45.7998 10.9912H46.4227V10.3928H46.8395V12.0536H46.4227V11.3651H45.7998V12.0536H45.3831V10.3928H45.7998V10.9912Z" fill="#151515"/>
<path d="M47.6051 12.0536H47.3838V10.3928H47.7898V11.3682L48.6401 10.3928H48.8403V12.0536H48.4343V11.098L47.6051 12.0536Z" fill="#151515"/>
<path d="M51.0502 11.3437H49.7115C49.7263 11.4536 49.7815 11.5541 49.8665 11.6254C49.9576 11.6975 50.0716 11.7346 50.1877 11.7299C50.2622 11.731 50.3361 11.7171 50.405 11.6891C50.474 11.661 50.5366 11.6194 50.5892 11.5667L50.9403 11.7315C50.8607 11.8487 50.7525 11.9436 50.6259 12.007C50.4895 12.0695 50.3407 12.1001 50.1908 12.0963C50.0735 12.1008 49.9565 12.0813 49.847 12.0389C49.7376 11.9965 49.6379 11.9321 49.5543 11.8498C49.4734 11.769 49.4099 11.6726 49.3677 11.5665C49.3254 11.4603 49.3053 11.3466 49.3085 11.2324C49.3049 11.1161 49.3248 11.0003 49.3669 10.8919C49.409 10.7835 49.4725 10.6846 49.5536 10.6012C49.6329 10.519 49.7285 10.4542 49.8343 10.411C49.9401 10.3677 50.0537 10.347 50.1679 10.3501C50.2858 10.3456 50.4034 10.3656 50.5132 10.4088C50.6231 10.452 50.7227 10.5175 50.8059 10.6012C50.9698 10.7687 51.0517 10.9897 51.0517 11.2645L51.0502 11.3437ZM50.6335 11.0156C50.6066 10.9239 50.5491 10.8441 50.4706 10.7896C50.3883 10.7313 50.2894 10.7008 50.1885 10.7026C50.0786 10.7006 49.971 10.7349 49.8826 10.8003C49.8147 10.8584 49.7622 10.9324 49.7297 11.0156H50.6335Z" fill="#151515"/>
<path d="M12.6631 3.34351C12.0545 3.34386 11.4544 3.48701 10.9112 3.76145C10.3679 4.0359 9.89663 4.43397 9.53521 4.92367C9.17378 5.41337 8.93229 5.98104 8.83016 6.58105C8.72802 7.18105 8.76809 7.79665 8.94714 8.37836C9.12618 8.96006 9.43922 9.49164 9.86107 9.93037C10.2829 10.3691 10.8018 10.7027 11.3761 10.9044C11.9503 11.1061 12.5639 11.1703 13.1674 11.0918C13.771 11.0132 14.3477 10.7942 14.8511 10.4522L14.0154 9.61644L15.0484 8.58349L15.8827 9.41782C16.2795 8.83287 16.5094 8.15088 16.5478 7.44511C16.5861 6.73933 16.4315 6.03644 16.1005 5.41192C15.7695 4.78741 15.2746 4.26487 14.669 3.90044C14.0633 3.536 13.3699 3.34345 12.6631 3.34345L12.6631 3.34351ZM12.6631 8.28297C12.4556 8.28297 12.2528 8.22144 12.0803 8.10616C11.9077 7.99088 11.7733 7.82703 11.6939 7.63533C11.6145 7.44363 11.5937 7.23269 11.6342 7.02919C11.6747 6.82568 11.7746 6.63876 11.9213 6.49205C12.0681 6.34534 12.255 6.24543 12.4585 6.20496C12.662 6.16449 12.873 6.18529 13.0646 6.26471C13.2563 6.34412 13.4202 6.47861 13.5354 6.65114C13.6507 6.82367 13.7122 7.02651 13.7122 7.23401C13.7122 7.37177 13.6851 7.50819 13.6323 7.63546C13.5796 7.76274 13.5023 7.87838 13.4049 7.97579C13.3075 8.0732 13.1919 8.15046 13.0646 8.20317C12.9373 8.25588 12.8009 8.28299 12.6631 8.28297ZM12.9184 0.617554C7.93145 0.617554 3.54024 3.26703 0.973145 7.28801C3.53891 11.3103 7.93139 13.9598 12.9184 13.9598C14.543 13.9609 16.1551 13.6752 17.6804 13.1159L16.2462 11.693C15.2704 12.434 14.0782 12.8341 12.8529 12.8318C9.76645 12.8318 7.26477 10.35 7.26477 7.28801C7.26477 4.22733 9.76645 1.7455 12.8529 1.7455C15.9394 1.7455 18.4411 4.22733 18.4411 7.28801C18.4427 8.50495 18.0393 9.68782 17.2946 10.6503L19.1419 12.4829C21.4812 11.2978 23.4571 9.50289 24.861 7.28785C22.2953 3.26703 17.904 0.617554 12.9184 0.617554Z" fill="#61AC5D"/>
</g>
<defs>
<clipPath id="clip0_21_1769">
<rect width="51.1615" height="13.3423" fill="white" transform="translate(0.973145 0.617554)"/>
</clipPath>
</defs>
</svg>
