<svg width="77" height="21" viewBox="0 0 77 21" fill="none" xmlns="http://www.w3.org/2000/svg">
<g clipPath="url(#clip0_32_1414)">
<path d="M73.9704 1.95508H74.9087V2.27318H74.599V3.65243H74.2712V2.27318H73.9699L73.9704 1.95508Z" fill="#FFFFF0"/>
<path d="M75.2947 1.95508H75.6095L76.003 3.13919L76.4005 1.95508H76.7152L76.9998 3.65277H76.6872L76.5052 2.58058L76.1446 3.65277H75.86L75.5025 2.58058L75.3161 3.65277H75.0011L75.2947 1.95508Z" fill="#FFFFF0"/>
<path d="M41.0492 3.02021C41.1803 3.0186 41.3103 3.04411 41.4311 3.09511C41.5519 3.14612 41.6609 3.22154 41.7512 3.31664C41.8461 3.41028 41.921 3.52223 41.9714 3.6457C42.0218 3.76916 42.0465 3.90157 42.0442 4.03489C42.0464 4.16667 42.0219 4.29753 41.9721 4.41954C41.9222 4.54156 41.8482 4.65218 41.7543 4.74469C41.6652 4.83876 41.5576 4.9134 41.4382 4.96393C41.3189 5.01445 41.1904 5.03976 41.0608 5.03827C40.9285 5.04019 40.7973 5.01457 40.6754 4.96304C40.5536 4.9115 40.4438 4.83518 40.353 4.73891C40.2578 4.64371 40.1828 4.53027 40.1324 4.40539C40.0821 4.28051 40.0575 4.14675 40.06 4.01212C40.0598 3.74948 40.1638 3.49748 40.3493 3.3115C40.5348 3.12551 40.7865 3.02075 41.0492 3.02021ZM40.2711 5.57411H41.8273V11.7765H40.2711V5.57411Z" fill="#FFFFF0"/>
<path d="M50.6062 10.5509L52.0658 12.4377H50.1761L49.4347 11.4834C48.8057 11.8232 48.1003 11.9966 47.3855 11.987C46.1258 11.987 45.0794 11.5528 44.2462 10.6845C43.7744 10.2045 43.4186 9.62303 43.206 8.98448C42.9934 8.34593 42.9296 7.66721 43.0195 7.00023C43.1095 6.33325 43.3507 5.69566 43.7248 5.13621C44.099 4.57676 44.5961 4.11028 45.1781 3.77241C45.8407 3.38155 46.5965 3.1767 47.3658 3.17947C48.5561 3.17947 49.5781 3.60897 50.4319 4.46797C51.2857 5.32698 51.7127 6.374 51.7127 7.60903C51.7318 8.69476 51.3361 9.74689 50.6062 10.5509ZM49.6088 9.26177C49.9435 8.77162 50.1205 8.19092 50.1162 7.5974C50.1238 7.22347 50.0565 6.8518 49.9183 6.50427C49.7801 6.15674 49.5738 5.84038 49.3114 5.57381C49.0633 5.30677 48.7619 5.09472 48.4267 4.95137C48.0915 4.80801 47.73 4.73654 47.3655 4.74155C46.9992 4.7328 46.6351 4.80023 46.2962 4.93958C45.9573 5.07892 45.651 5.28714 45.3968 5.55104C44.8679 6.09082 44.6035 6.77682 44.6036 7.60903C44.6036 8.5364 44.9367 9.26989 45.6029 9.8095C46.1017 10.2233 46.7307 10.4474 47.3788 10.4423C47.7483 10.4446 48.1142 10.3686 48.4523 10.2194L46.9506 8.28744H48.8549L49.6088 9.26177Z" fill="#FFFFF0"/>
<path d="M53.2629 7.96265H56.1589V9.41087H53.2629V7.96265Z" fill="#FFFFF0"/>
<path d="M58.12 3.39075H59.7158V10.2543H62.0417V11.7765H58.12V3.39075Z" fill="#FFFFF0"/>
<path d="M63.6921 3.02021C63.8232 3.0186 63.9533 3.0441 64.0741 3.09511C64.1948 3.14612 64.3038 3.22154 64.3941 3.31664C64.489 3.41028 64.5639 3.52222 64.6143 3.64569C64.6647 3.76916 64.6894 3.90157 64.6871 4.03489C64.6893 4.16667 64.6648 4.29752 64.6149 4.41953C64.5651 4.54154 64.491 4.65216 64.3972 4.74469C64.308 4.83876 64.2004 4.91339 64.0811 4.96391C63.9618 5.01443 63.8333 5.03974 63.7038 5.03827C63.5715 5.0402 63.4402 5.01458 63.3183 4.96305C63.1965 4.91151 63.0867 4.83518 62.9959 4.73892C62.9007 4.64371 62.8256 4.53027 62.7753 4.40539C62.725 4.28051 62.7003 4.14675 62.7029 4.01212C62.7027 3.74945 62.8067 3.49743 62.9922 3.31144C63.1777 3.12545 63.4295 3.0207 63.6921 3.02021ZM62.9136 5.57411H64.4707V11.7765H62.9144L62.9136 5.57411Z" fill="#FFFFF0"/>
<path d="M65.1432 5.57407H65.6962C65.6999 4.76089 65.7132 4.28013 65.7361 4.13179C65.7503 3.97465 65.7957 3.82192 65.8696 3.68251C65.9435 3.54309 66.0445 3.41979 66.1665 3.31978C66.4116 3.12021 66.7584 3.02045 67.2069 3.02051C67.5818 3.03069 67.9522 3.10592 68.3013 3.24285V4.42855C68.1222 4.37151 67.9363 4.33891 67.7484 4.33161C67.566 4.33161 67.433 4.36962 67.3494 4.44563C67.2887 4.50244 67.2583 4.62017 67.2583 4.79881L67.2525 5.57407H68.2387V6.89096H67.2524V11.7764H65.6962V6.89096H65.1432V5.57407Z" fill="#FFFFF0"/>
<path d="M75.3645 9.12557H70.365C70.4203 9.53592 70.6266 9.91092 70.9436 10.1773C71.2572 10.4377 71.6572 10.5679 72.1436 10.5679C72.4216 10.5718 72.6976 10.5199 72.9552 10.4151C73.2128 10.3103 73.4467 10.1549 73.643 9.95792L74.9541 10.5735C74.6569 11.0113 74.2525 11.3656 73.7795 11.6025C73.3234 11.8249 72.7819 11.9361 72.1548 11.9361C71.1818 11.9361 70.3893 11.6291 69.7774 11.0152C69.1654 10.4013 68.8595 9.63267 68.8595 8.70927C68.8595 7.76287 69.1645 6.97712 69.7744 6.35201C70.3844 5.7269 71.1492 5.41437 72.0691 5.41443C73.0457 5.41443 73.84 5.72695 74.452 6.35201C75.0639 6.97706 75.3699 7.80277 75.37 8.82914L75.3645 9.12557ZM73.8082 7.89994C73.7079 7.55747 73.4933 7.2597 73.2001 7.0562C72.8927 6.83809 72.5234 6.72423 72.1465 6.73131C71.7361 6.72382 71.3346 6.85206 71.0045 7.09613C70.7989 7.24826 70.6085 7.51614 70.4334 7.89977L73.8082 7.89994Z" fill="#FFFFF0"/>
<path d="M41.7033 16.4075L41.6357 16.3306L40.892 17.2116H40.0601L41.1886 15.9284L40.0739 14.7122H40.8396L41.7033 15.6479V14.7122H42.3304V15.6479L43.191 14.7122H43.9599L42.8465 15.9301L43.9734 17.2116H43.1416L42.3965 16.3288L42.3304 16.4075V17.2116H41.7033V16.4075Z" fill="#FFFFF0"/>
<path d="M44.7493 17.2116H44.4162V14.7122H45.0273V16.1801L46.3068 14.7122H46.6082V17.2116H45.9971V15.7736L44.7493 17.2116Z" fill="#FFFFF0"/>
<path d="M47.43 17.2116V14.7122H48.4339C48.7632 14.7122 48.9868 14.7769 49.1047 14.9063C49.2182 15.0246 49.2816 15.1822 49.2816 15.3462C49.2816 15.5897 49.1606 15.7651 48.9186 15.8723C49.2495 15.9856 49.4149 16.1992 49.4149 16.5132C49.4208 16.6646 49.3746 16.8134 49.284 16.9348C49.2006 17.0432 49.084 17.1211 48.952 17.1565C48.7678 17.1986 48.5791 17.2171 48.3902 17.2116H47.43ZM48.0572 15.6954H48.2994C48.3859 15.701 48.4712 15.6735 48.5381 15.6184C48.5636 15.5977 48.5844 15.5716 48.5989 15.5421C48.6135 15.5126 48.6214 15.4802 48.6223 15.4473C48.6246 15.4073 48.6187 15.3673 48.6048 15.3297C48.5909 15.2921 48.5694 15.2578 48.5416 15.229C48.5165 15.2039 48.4866 15.1841 48.4537 15.1707C48.4209 15.1573 48.3856 15.1506 48.3501 15.151L48.2694 15.1532H48.0572V15.6954ZM48.0572 16.7292H48.3727C48.4196 16.7342 48.4671 16.7291 48.5118 16.7143C48.5566 16.6994 48.5977 16.6751 48.6323 16.6431C48.6772 16.5979 48.704 16.5378 48.7076 16.4741C48.7073 16.3921 48.6774 16.313 48.6234 16.2513C48.5676 16.184 48.4665 16.1503 48.3203 16.1503H48.0574L48.0572 16.7292Z" fill="#FFFFF0"/>
<path d="M51.31 14.6477C51.5434 14.6471 51.7728 14.7081 51.975 14.8247C52.176 14.938 52.3433 15.1029 52.4594 15.3024C52.5755 15.5019 52.6362 15.7287 52.6355 15.9595C52.6363 16.1916 52.5757 16.4198 52.4597 16.6208C52.3467 16.8218 52.1811 16.9882 51.9807 17.1021C51.7771 17.2181 51.5464 17.278 51.3121 17.2755C51.1411 17.2781 50.9714 17.2455 50.8135 17.1797C50.6556 17.1139 50.513 17.0163 50.3944 16.8931C50.2697 16.7662 50.1718 16.6155 50.1065 16.4501C50.0413 16.2846 50.01 16.1076 50.0146 15.9298C50.0192 15.752 50.0596 15.5769 50.1333 15.415C50.207 15.2531 50.3126 15.1077 50.4437 14.9874C50.6783 14.7674 50.9884 14.6459 51.31 14.6477ZM51.3203 15.2381C51.2295 15.2359 51.1392 15.2528 51.0554 15.2878C50.9716 15.3227 50.8961 15.375 50.8339 15.4412C50.7687 15.5107 50.718 15.5926 50.6846 15.6819C50.6512 15.7712 50.6359 15.8662 50.6394 15.9615C50.631 16.1562 50.7003 16.3462 50.832 16.4898C50.8942 16.556 50.9697 16.6083 51.0536 16.6432C51.1375 16.678 51.2279 16.6947 51.3187 16.6921C51.4102 16.6944 51.5011 16.6774 51.5856 16.6421C51.67 16.6069 51.7461 16.5542 51.8088 16.4876C51.9344 16.3419 52.0037 16.1562 52.0044 15.9639C52.005 15.7716 51.9368 15.5854 51.8122 15.4389C51.749 15.3727 51.6725 15.3205 51.5877 15.2859C51.5029 15.2513 51.4118 15.2351 51.3203 15.2381Z" fill="#FFFFF0"/>
<path d="M55.8399 16.1434H53.8253C53.8475 16.3088 53.9306 16.4599 54.0584 16.5672C54.1956 16.6758 54.3672 16.7317 54.542 16.7246C54.6541 16.7262 54.7653 16.7053 54.8691 16.6631C54.9728 16.6209 55.0671 16.5582 55.1462 16.4789L55.6746 16.727C55.5548 16.9034 55.3919 17.0461 55.2013 17.1416C54.9962 17.2357 54.7723 17.2817 54.5466 17.276C54.3701 17.2828 54.194 17.2534 54.0292 17.1896C53.8645 17.1258 53.7145 17.0289 53.5886 16.905C53.4669 16.7834 53.3714 16.6383 53.3078 16.4786C53.2442 16.3188 53.2139 16.1477 53.2188 15.9758C53.2133 15.8008 53.2432 15.6266 53.3064 15.4634C53.3697 15.3002 53.4652 15.1514 53.5871 15.0259C53.7065 14.9021 53.8504 14.8046 54.0096 14.7395C54.1688 14.6745 54.3398 14.6433 54.5117 14.6479C54.6892 14.6411 54.8662 14.6712 55.0315 14.7362C55.1968 14.8013 55.3468 14.8999 55.472 15.0259C55.7185 15.2779 55.8418 15.6106 55.8418 16.0241L55.8399 16.1434ZM55.2127 15.6495C55.1723 15.5114 55.0858 15.3914 54.9676 15.3094C54.8437 15.2215 54.695 15.1757 54.5431 15.1785C54.3776 15.1754 54.2158 15.2271 54.0827 15.3255C53.9806 15.413 53.9015 15.5242 53.8526 15.6495H55.2127Z" fill="#FFFFF0"/>
<path d="M58.4585 16.1527V15.7048H58.5826C58.6603 15.7066 58.7369 15.6858 58.8031 15.6449C58.8346 15.6241 58.86 15.5952 58.8766 15.5613C58.8931 15.5274 58.9003 15.4896 58.8973 15.452C58.8982 15.4162 58.8912 15.3806 58.8767 15.3478C58.8622 15.3151 58.8407 15.2859 58.8136 15.2624C58.757 15.2124 58.6834 15.1857 58.6079 15.1878C58.4679 15.2013 58.3343 15.253 58.2216 15.3371L57.9735 14.9052C58.1768 14.7383 58.432 14.6473 58.6951 14.6479C58.9127 14.6396 59.1266 14.7065 59.3007 14.8374C59.3785 14.8974 59.4409 14.9751 59.4826 15.064C59.5244 15.1529 59.5444 15.2505 59.5408 15.3487C59.5408 15.5663 59.4244 15.7424 59.1916 15.877C59.5025 15.9918 59.658 16.1993 59.658 16.4995C59.6598 16.6061 59.6371 16.7116 59.5917 16.808C59.5462 16.9044 59.4793 16.9891 59.3959 17.0555C59.2213 17.2026 58.98 17.2761 58.6722 17.2761C58.367 17.2877 58.0684 17.1864 57.8334 16.9914L58.1803 16.555C58.2997 16.6542 58.4481 16.7123 58.6033 16.7204C58.6947 16.7253 58.785 16.6981 58.8584 16.6434C58.8885 16.62 58.9127 16.5898 58.9291 16.5553C58.9455 16.5207 58.9536 16.4829 58.9527 16.4447C58.9528 16.4064 58.945 16.3684 58.9298 16.3332C58.9146 16.298 58.8923 16.2664 58.8643 16.2402C58.8317 16.2101 58.7935 16.1869 58.7518 16.1719C58.71 16.1569 58.6658 16.1505 58.6215 16.153L58.4585 16.1527Z" fill="#FFFFF0"/>
<path d="M60.9693 14.7122V14.9878C61.0744 14.8801 61.1991 14.7936 61.3368 14.7328C61.4704 14.6758 61.6143 14.6469 61.7596 14.6478C61.9166 14.646 62.0722 14.6781 62.2158 14.7419C62.3593 14.8058 62.4873 14.8998 62.5912 15.0177C62.8243 15.2774 62.9471 15.6178 62.9334 15.9665C62.9435 16.3123 62.8163 16.648 62.5797 16.9004C62.4747 17.019 62.3455 17.1138 62.201 17.1786C62.0564 17.2434 61.8996 17.2765 61.7412 17.2759C61.6035 17.2771 61.4669 17.2509 61.3394 17.1989C61.2017 17.1387 61.0764 17.0535 60.9696 16.9478V18.1264H60.3471V14.7126L60.9693 14.7122ZM61.6285 15.2267C61.537 15.2242 61.446 15.2409 61.3613 15.2757C61.2767 15.3105 61.2002 15.3627 61.137 15.4289C61.071 15.4996 61.0198 15.5828 60.9863 15.6735C60.9527 15.7642 60.9376 15.8607 60.9418 15.9573C60.933 16.1556 61.0032 16.3493 61.137 16.496C61.1997 16.5631 61.2759 16.6161 61.3607 16.6516C61.4454 16.687 61.5367 16.7041 61.6285 16.7017C61.7194 16.7033 61.8096 16.6854 61.893 16.6493C61.9764 16.6133 62.0511 16.5597 62.1121 16.4924C62.2383 16.3448 62.3079 16.1571 62.3085 15.9629C62.3092 15.7687 62.2408 15.5806 62.1157 15.4322C62.0538 15.3652 61.9783 15.3122 61.8943 15.2768C61.8103 15.2414 61.7197 15.2243 61.6285 15.2267Z" fill="#FFFFF0"/>
<path d="M66.1449 16.1434H64.1301C64.1524 16.3087 64.2355 16.4599 64.3633 16.5672C64.5005 16.6758 64.6721 16.7317 64.8469 16.7246C64.959 16.7262 65.0702 16.7053 65.1739 16.6631C65.2777 16.6209 65.3719 16.5582 65.451 16.4789L65.9795 16.727C65.8597 16.9034 65.6968 17.0461 65.5062 17.1416C65.301 17.2357 65.0771 17.2817 64.8515 17.276C64.6749 17.2828 64.4989 17.2534 64.3341 17.1896C64.1694 17.1258 64.0194 17.0289 63.8935 16.905C63.7719 16.7835 63.6763 16.6383 63.6126 16.4786C63.549 16.3188 63.5187 16.1477 63.5236 15.9758C63.5183 15.8008 63.5481 15.6265 63.6115 15.4634C63.6748 15.3002 63.7704 15.1514 63.8924 15.0259C64.0118 14.9021 64.1557 14.8046 64.3149 14.7396C64.4741 14.6745 64.6451 14.6433 64.8171 14.6479C64.9946 14.6411 65.1715 14.6712 65.3368 14.7362C65.5021 14.8013 65.6521 14.8999 65.7773 15.0259C66.0239 15.2779 66.1472 15.6106 66.1472 16.0241L66.1449 16.1434ZM65.5176 15.6495C65.4773 15.5114 65.3908 15.3914 65.2726 15.3094C65.1487 15.2216 64.9999 15.1757 64.848 15.1785C64.6826 15.1754 64.5207 15.2271 64.3876 15.3255C64.2855 15.413 64.2064 15.5242 64.1575 15.6495H65.5176Z" fill="#FFFFF0"/>
<path d="M67.4656 15.6127H68.4032V14.7122H69.0304V17.2116H68.4032V16.1755H67.4656V17.2116H66.8385V14.7122H67.4656V15.6127Z" fill="#FFFFF0"/>
<path d="M70.1831 17.2116H69.85V14.7122H70.4611V16.1801L71.7408 14.7122H72.0421V17.2116H71.431V15.7736L70.1831 17.2116Z" fill="#FFFFF0"/>
<path d="M75.3679 16.1432H73.3531C73.3754 16.3086 73.4585 16.4598 73.5864 16.5671C73.7235 16.6757 73.8951 16.7316 74.0699 16.7245C74.1819 16.7261 74.2932 16.7052 74.3969 16.6629C74.5007 16.6207 74.595 16.5581 74.6741 16.4788L75.2025 16.7269C75.0828 16.9032 74.9199 17.046 74.7293 17.1415C74.5241 17.2356 74.3001 17.2815 74.0745 17.2759C73.898 17.2827 73.7219 17.2533 73.5571 17.1895C73.3924 17.1257 73.2425 17.0288 73.1166 16.9049C72.9949 16.7833 72.8993 16.6382 72.8357 16.4784C72.7721 16.3187 72.7418 16.1476 72.7466 15.9756C72.7413 15.8007 72.7712 15.6264 72.8345 15.4632C72.8979 15.3 72.9934 15.1513 73.1155 15.0258C73.2349 14.902 73.3788 14.8045 73.538 14.7394C73.6972 14.6743 73.8682 14.6431 74.0401 14.6478C74.2176 14.641 74.3945 14.671 74.5598 14.7361C74.7251 14.8011 74.8751 14.8998 75.0003 15.0258C75.2469 15.2777 75.3702 15.6105 75.3702 16.024L75.3679 16.1432ZM74.7408 15.6493C74.7003 15.5113 74.6138 15.3913 74.4957 15.3093C74.3717 15.2215 74.2229 15.1756 74.0711 15.1784C73.9056 15.1753 73.7437 15.227 73.6106 15.3254C73.5085 15.4128 73.4295 15.5241 73.3805 15.6493H74.7408Z" fill="#FFFFF0"/>
<path d="M17.5939 4.10267C16.6778 4.1032 15.7747 4.31865 14.9571 4.73169C14.1395 5.14474 13.4302 5.74385 12.8862 6.48087C12.3423 7.2179 11.9788 8.07226 11.8251 8.9753C11.6714 9.87833 11.7317 10.8048 12.0012 11.6803C12.2706 12.5558 12.7418 13.3559 13.3767 14.0161C14.0116 14.6764 14.7925 15.1786 15.6568 15.4821C16.5211 15.7857 17.4445 15.8823 18.3528 15.7641C19.2612 15.6459 20.1292 15.3162 20.8869 14.8015L19.6291 13.5437L21.1838 11.9891L22.4395 13.2447C23.0366 12.3644 23.3827 11.338 23.4404 10.2757C23.4982 9.21352 23.2655 8.15563 22.7673 7.21571C22.2691 6.27579 21.5242 5.48935 20.6127 4.94087C19.7013 4.39238 18.6576 4.10258 17.5938 4.10258L17.5939 4.10267ZM17.5939 11.5368C17.2816 11.5368 16.9763 11.4441 16.7166 11.2706C16.457 11.0972 16.2546 10.8506 16.1351 10.562C16.0156 10.2735 15.9844 9.95604 16.0453 9.64976C16.1062 9.34348 16.2566 9.06215 16.4775 8.84134C16.6983 8.62054 16.9796 8.47017 17.2859 8.40927C17.5922 8.34836 17.9097 8.37966 18.1982 8.49919C18.4867 8.61871 18.7333 8.82111 18.9067 9.08078C19.0802 9.34046 19.1728 9.64574 19.1728 9.95802C19.1728 10.1654 19.1319 10.3707 19.0526 10.5622C18.9732 10.7538 18.8569 10.9278 18.7103 11.0744C18.5637 11.221 18.3896 11.3373 18.1981 11.4167C18.0065 11.496 17.8012 11.5368 17.5939 11.5368ZM17.9781 0C10.4725 0 3.86358 3.98756 0 10.0393C3.86157 16.093 10.4724 20.0806 17.9781 20.0806C20.4232 20.0823 22.8494 19.6523 25.1451 18.8104L22.9866 16.669C21.5179 17.7842 19.7237 18.3863 17.8796 18.3829C13.2343 18.3829 9.46914 14.6478 9.46914 10.0393C9.46914 5.43286 13.2343 1.69761 17.8796 1.69761C22.5249 1.69761 26.29 5.43286 26.29 10.0393C26.2923 11.8708 25.6853 13.6511 24.5644 15.0996L27.3447 17.8578C30.8655 16.0741 33.8393 13.3728 35.9521 10.0391C32.0907 3.98756 25.4816 0 17.9781 0Z" fill="#61AC5D"/>
</g>
<defs>
<clipPath id="clip0_32_1414">
<rect width="77" height="20.0806" fill="white"/>
</clipPath>
</defs>
</svg>
