<?xml version="1.0" encoding="utf-8" ?>
<!DOCTYPE svg PUBLIC "-//W3C//DTD SVG 1.1//EN" "http://www.w3.org/Graphics/SVG/1.1/DTD/svg11.dtd">
<svg xmlns="http://www.w3.org/2000/svg" id="be864e40-11ef-4485-bd09-bdea37b7c375" data-name="Layer 1" width="487.366" height="152.06" viewBox="0 0 487.366 152.06"><g id="ac46617d-5e84-47d7-bd36-2faa2e0449a5" data-name="Group 9"><g id="f76d2944-75ce-41c7-8f78-7a7e3d1ed99b" data-name="Group 7"><path id="a2c55da1-0b23-4695-a926-fea866d13a82" data-name="Path 14" d="M180.551,15.762h13.027V41.216H216.1V15.762h12.979V83.229H216.1V53.644H193.578V83.229H180.551Z" transform="translate(-6.317 -13.97)" style="fill:#2f7d31"/><path id="aed3fc22-444f-459b-989d-e225640c2c12" data-name="Path 15" d="M276.343,14.062a33.523,33.523,0,0,1,24.62,10.365,34.5,34.5,0,0,1,10.3,25.275A34.1,34.1,0,0,1,301.1,74.7a35.223,35.223,0,0,1-49.813-.176l-.1-.1a35.465,35.465,0,0,1,25.151-60.36Zm-.139,12.57a21.178,21.178,0,0,0-15.747,6.515,22.666,22.666,0,0,0-6.38,16.559,21.57,21.57,0,0,0,8.043,17.7A22.021,22.021,0,0,0,276.445,72.5a20.9,20.9,0,0,0,15.564-6.6,23.786,23.786,0,0,0-.047-32.583A21.093,21.093,0,0,0,276.2,26.632Zm6.3,22.862a6.216,6.216,0,0,1-2.559-11.934,12.721,12.721,0,0,0-3.707-.548,12.432,12.432,0,1,0,11.926,8.775,6.2,6.2,0,0,1-5.663,3.707Z" transform="translate(-6.317 -13.97)" style="fill:#2f7d31"/><path id="abd2e511-e071-45d0-aefe-f7fc4bf91f19" data-name="Path 16" d="M323.375,83.229V15.762h10.6a55.092,55.092,0,0,1,13.5,1.188,18.08,18.08,0,0,1,9.641,5.964,15.659,15.659,0,0,1,3.583,10.27,14.988,14.988,0,0,1-1.631,7,17.785,17.785,0,0,1-5.3,5.893,21.167,21.167,0,0,1,8.99,7.225A18.28,18.28,0,0,1,365.6,63.537,19.086,19.086,0,0,1,362.679,73.9a18.748,18.748,0,0,1-7.576,7,29.135,29.135,0,0,1-12.8,2.318ZM336.22,28.021V42.244h2.808A10.448,10.448,0,0,0,346,40.269a6.715,6.715,0,0,0,2.278-5.363,6.277,6.277,0,0,0-2.164-5.024,9.9,9.9,0,0,0-6.581-1.861Zm0,25.685V71h3.221a19.866,19.866,0,0,0,10.782-2.019,6.8,6.8,0,0,0,2.782-5.868,8.231,8.231,0,0,0-3.265-6.884,18.036,18.036,0,0,0-10.851-2.519Z" transform="translate(-6.317 -13.97)" style="fill:#2f7d31"/><path id="ffbce0fa-d332-4e46-b78a-e2dcacd0b7eb" data-name="Path 17" d="M409.712,14.062a33.512,33.512,0,0,1,24.621,10.365A34.5,34.5,0,0,1,444.639,49.7,34.1,34.1,0,0,1,434.471,74.7a35.219,35.219,0,0,1-49.808-.175l-.1-.1a35.465,35.465,0,0,1,25.147-60.36Zm-.139,12.57a21.164,21.164,0,0,0-15.743,6.515,22.668,22.668,0,0,0-6.384,16.559,21.571,21.571,0,0,0,8.044,17.7A22.034,22.034,0,0,0,409.818,72.5a20.909,20.909,0,0,0,15.564-6.6,23.8,23.8,0,0,0-.047-32.583,21.1,21.1,0,0,0-15.758-6.68Z" transform="translate(-6.317 -13.97)" style="fill:#2f7d31"/><path id="b85d9af3-75d7-430a-b5d4-831ecd1198e9" data-name="Path 18" d="M456.8,15.762h36.828V28.325H469.545V40.544h24.079V52.883H469.545V70.63h24.079V83.244H456.8Z" transform="translate(-6.317 -13.97)" style="fill:#2f7d31"/><path id="fc897344-bcd7-4cdc-994e-ff62eebfd7a3" data-name="Path 19" d="M183.67,146.963a14.438,14.438,0,0,0,11.813,7.024,10.337,10.337,0,0,0,7.269-2.537,8.709,8.709,0,0,0,2.771-6.753,9.338,9.338,0,0,0-2.695-6.845q-2.7-2.72-11.173-2.72h-2.716V123.8h2.716a11.2,11.2,0,0,0,7.641-2.314,7.9,7.9,0,0,0,2.6-6.216,7.461,7.461,0,0,0-2.194-5.667,8.02,8.02,0,0,0-5.777-2.084,13.143,13.143,0,0,0-8.775,4.212l-7.48-8.34a27.324,27.324,0,0,1,10.08-6.5,29.272,29.272,0,0,1,7.444-1.064,20.358,20.358,0,0,1,13.725,4.753,16.01,16.01,0,0,1,5.565,12.825,20.129,20.129,0,0,1-1.247,6.976,17.006,17.006,0,0,1-6.947,7.207,18.143,18.143,0,0,1,11.7,17.812,19.158,19.158,0,0,1-6.241,14.932,22.993,22.993,0,0,1-16.04,5.642,26.305,26.305,0,0,1-11.07-2.242,31.457,31.457,0,0,1-10.665-9.677Z" transform="translate(-6.317 -13.97)" style="fill:#2f7d31"/><path id="bd231869-7cdd-46c9-a854-06ea452761ae" data-name="Path 20" d="M230.041,97.66H243.5a44.307,44.307,0,0,1,15.747,2.018,16.055,16.055,0,0,1,7.616,6.527,20.169,20.169,0,0,1,2.783,10.807,18.162,18.162,0,0,1-3.657,11.6,18.9,18.9,0,0,1-9.9,6.435,56.751,56.751,0,0,1-13.371,1.046v28.232H230.026Zm12.691,26.065h4.021a21.8,21.8,0,0,0,6.622-.684,5.91,5.91,0,0,0,2.925-2.248,6.613,6.613,0,0,0,1.064-3.8,6.069,6.069,0,0,0-2.988-5.637,17.049,17.049,0,0,0-8.069-1.32h-3.579Z" transform="translate(-6.317 -13.97)" style="fill:#2f7d31"/><path id="e88767f5-69b6-4a88-84ac-7e8f20e8d32c" data-name="Path 21" d="M282.116,97.66h36.393v12.431H294.715v12.065h23.794v12.19H294.715V151.9h23.794v12.464H282.116Z" transform="translate(-6.317 -13.97)" style="fill:#2f7d31"/><path id="a7ddcc47-a52f-4950-9858-6e1eb9d1db9d" data-name="Path 22" d="M330.289,97.66h12.87v25.154h22.255V97.66h12.822v66.67H365.414V135.081H343.159V164.33h-12.87Z" transform="translate(-6.317 -13.97)" style="fill:#2f7d31"/><path id="a4a1dcd4-7110-4be9-8fdc-469de6c49558" data-name="Path 23" d="M442.007,97.66v66.67h-12.68V122.591l-24.862,41.743H393.424V97.66h12.69v43.1l25.2-43.1Z" transform="translate(-6.317 -13.97)" style="fill:#2f7d31"/><path id="fbbe2f3b-cc0f-43a8-bf67-95609f284ae9" data-name="Path 24" d="M457.282,97.66h36.4v12.431h-23.8v12.065h23.8v12.19h-23.8V151.9h23.8v12.464H457.29Z" transform="translate(-6.317 -13.97)" style="fill:#2f7d31"/></g><g id="ee07a235-b0fb-449d-b395-d29ac66dedba" data-name="Group 8"><path id="b215a28b-2672-4201-809f-cc14816e40d1" data-name="Path 25" d="M7.732,104.76a109.307,109.307,0,0,0-1.415,17.7v43.57h40.69a104.792,104.792,0,0,0,18.573-1.678A126.4,126.4,0,0,1,7.732,104.76Z" transform="translate(-6.317 -13.97)" style="fill:#2f7d31"/><path id="b1ce9671-c31f-4d7a-b388-e1466360da73" data-name="Path 26" d="M114.7,13.971A108.612,108.612,0,0,0,96.05,15.565,123.724,123.724,0,0,1,153.379,72.8,110.291,110.291,0,0,0,155,54.73V13.971Z" transform="translate(-6.317 -13.97)" style="fill:#2f7d31"/><path id="a839b96c-1d58-4866-a49a-890bc0e7aeb6" data-name="Path 27" d="M46.352,13.971H6.317V54.729c0,60.272,47.494,111.3,107.725,111.3h40.949V122.46A108.193,108.193,0,0,0,47.1,13.97C46.848,13.969,46.6,13.97,46.352,13.971ZM80.523,141.863a51.844,51.844,0,1,1,.058,0h-.058Z" transform="translate(-6.317 -13.97)" style="fill:#2f7d31"/><path id="acb8b462-729d-418b-927a-d2d1f9855739" data-name="Path 28" d="M92,89.986a11.44,11.44,0,0,1-4.672-21.9,23.248,23.248,0,0,0-6.8-1.012,22.913,22.913,0,1,0,22.913,22.913h0a23.272,23.272,0,0,0-1.013-6.8A11.371,11.371,0,0,1,92,89.986Z" transform="translate(-6.317 -13.97)" style="fill:#2f7d31"/></g></g></svg>