<?xml version="1.0" encoding="utf-8" ?>
<!DOCTYPE svg PUBLIC "-//W3C//DTD SVG 1.1//EN" "http://www.w3.org/Graphics/SVG/1.1/DTD/svg11.dtd">
<svg xmlns="http://www.w3.org/2000/svg" xmlns:xlink="http://www.w3.org/1999/xlink" version="1.1" id="be864e40-11ef-4485-bd09-bdea37b7c375" x="0px" y="0px" viewBox="0 0 423.4 155.2" style="enable-background:new 0 0 423.4 155.2;" xml:space="preserve"><style type="text/css">.st0{fill:#2F7D31;}</style><g id="XMLID_919_"><g id="XMLID_927_"><path id="XMLID_946_" class="st0" d="M178.2,0h15.7l36.7,56.5V0h16.3v85.8h-15.7l-36.7-56.3v56.3h-16.3V0z"/><path id="XMLID_944_" class="st0" d="M266.6,0h46.8v16h-30.6v15.5h30.6v15.7h-30.6v22.6h30.6v16h-46.8V0z"/><path id="XMLID_942_" class="st0" d="M322.1,0h16.1l12.4,54.8L365.9,0h13.6L395,54.8L407.3,0h16.1L404,85.8h-15.7l-15.8-55.5 L357,85.8h-15.5L322.1,0z"/><path id="XMLID_940_" class="st0" d="M173.8,99.8h10.5l13.5,38.2l13.7-38.2H222l-19.4,53.7h-9.9L173.8,99.8z"/><path id="XMLID_938_" class="st0" d="M229.5,99.8h10.2v53.7h-10.2V99.8z"/><path id="XMLID_936_" class="st0" d="M279.3,107.1l-7.6,6.7c-2.7-3.7-5.4-5.6-8.1-5.6c-1.3,0-2.4,0.4-3.3,1.1 c-0.9,0.7-1.3,1.5-1.3,2.4c0,0.9,0.3,1.8,0.9,2.6c0.8,1.1,3.3,3.4,7.5,6.9c3.9,3.3,6.3,5.3,7.1,6.2c2.1,2.1,3.5,4.1,4.4,6 c0.9,1.9,1.3,4,1.3,6.3c0,4.4-1.5,8-4.6,10.9c-3,2.9-7,4.3-11.9,4.3c-3.8,0-7.2-0.9-10-2.8s-5.3-4.8-7.3-8.8l8.6-5.2 c2.6,4.7,5.6,7.1,8.9,7.1c1.8,0,3.2-0.5,4.4-1.5c1.2-1,1.8-2.2,1.8-3.5c0-1.2-0.5-2.4-1.4-3.7c-0.9-1.2-2.9-3.1-6-5.6 c-5.9-4.8-9.6-8.5-11.3-11c-1.7-2.6-2.6-5.2-2.6-7.8c0-3.7,1.4-6.9,4.3-9.6c2.8-2.7,6.3-4,10.5-4c2.7,0,5.2,0.6,7.7,1.9 C273.9,101.6,276.5,103.9,279.3,107.1z"/><path id="XMLID_934_" class="st0" d="M289.3,99.8h10.2v53.7h-10.2V99.8z"/><path id="XMLID_930_" class="st0" d="M336.3,98.5c7.6,0,14.1,2.8,19.6,8.3c5.5,5.5,8.2,12.2,8.2,20.1c0,7.8-2.7,14.5-8.1,19.9 c-5.4,5.4-11.9,8.1-19.6,8.1c-8.1,0-14.8-2.8-20.1-8.4c-5.3-5.6-8-12.2-8-19.9c0-5.1,1.2-9.9,3.7-14.2c2.5-4.3,5.9-7.7,10.3-10.2 C326.6,99.7,331.3,98.5,336.3,98.5z M336.2,108.5c-5,0-9.2,1.7-12.5,5.2c-3.4,3.5-5.1,7.9-5.1,13.2c0,5.9,2.1,10.6,6.4,14.1 c3.3,2.7,7.1,4.1,11.4,4.1c4.8,0,9-1.8,12.4-5.3c3.4-3.5,5.1-7.8,5.1-13c0-5.1-1.7-9.4-5.2-13 C345.3,110.3,341.1,108.5,336.2,108.5z M342.1,126.8c-2.9,0-5.3-2.4-5.3-5.3c0-2.1,1.3-4,3.1-4.8c-1-0.3-2-0.5-3.1-0.5 c-5.8,0-10.5,4.7-10.5,10.5c0,5.8,4.7,10.5,10.5,10.5s10.5-4.7,10.5-10.5c0-1.1-0.2-2.1-0.5-3.1 C346.1,125.5,344.2,126.8,342.1,126.8z"/><path id="XMLID_928_" class="st0" d="M373.8,99.8h9.8l23,35.4V99.8h10.2v53.7H407l-23-35.2v35.2h-10.2V99.8z"/></g><g id="XMLID_920_"><path id="XMLID_926_" class="st0" d="M1.7,92.8c-1,5.8-1.7,11.8-1.7,17.9v44.5h41.7c6.4,0,12.5-0.9,18.6-2 C34.7,140.6,14,118.9,1.7,92.8z"/><path id="XMLID_925_" class="st0" d="M110,0.6c-6.4,0-12.7,0.8-18.8,1.9c25.2,12.2,45.8,32.7,58,57.9c1-6,1.7-11.9,1.7-18.1V0.6 H110z"/><path id="XMLID_922_" class="st0" d="M41,0.6H0v41.7c0,60.8,48.6,112.9,109.4,112.9h41.5v-44.5C150.9,49.8,101.9,0.6,41,0.6z M75.5,130.3c-28.9,0-52.4-23.4-52.4-52.4c0-28.9,23.4-52.4,52.4-52.4s52.4,23.4,52.4,52.4C127.9,106.8,104.5,130.3,75.5,130.3z"/><path id="XMLID_921_" class="st0" d="M87.1,77.9c-6.4,0-11.6-5.2-11.6-11.6c0-4.7,2.8-8.7,6.9-10.5c-2.2-0.7-4.5-1-6.9-1 c-12.8,0-23.1,10.3-23.1,23.1S62.8,101,75.5,101s23.1-10.3,23.1-23.1c0-2.4-0.4-4.7-1-6.9C95.9,75.1,91.8,77.9,87.1,77.9z"/></g></g></svg>