<?xml version="1.0" encoding="utf-8" ?>
<!DOCTYPE svg PUBLIC "-//W3C//DTD SVG 1.1//EN" "http://www.w3.org/Graphics/SVG/1.1/DTD/svg11.dtd">
<svg xmlns="http://www.w3.org/2000/svg" xmlns:xlink="http://www.w3.org/1999/xlink" id="be864e40-11ef-4485-bd09-bdea37b7c375" x="0px" y="0px" viewBox="0 0 547.3 155.2" style="enable-background:new 0 0 547.3 155.2;" xml:space="preserve"><style type="text/css">.st0{fill:#2F7D31;}</style><g id="XMLID_827_"><g id="XMLID_835_"><path id="XMLID_869_" class="st0" d="M180.4,2h14.5l33.9,51.3V2h15.1v77.9h-14.5l-33.9-51.1v51.1h-15.1V2z"/><path id="XMLID_866_" class="st0" d="M278.6,2h15.3l30.5,77.9h-15.7l-6.2-16.1h-32.3l-6.4,16.1h-15.7L278.6,2z M292.6,37.2 c-3.2,0-5.7-2.6-5.7-5.7c0-2.3,1.4-4.3,3.4-5.2c-1.1-0.3-2.2-0.5-3.4-0.5c-6.3,0-11.4,5.1-11.4,11.4s5.1,11.4,11.4,11.4 s11.4-5.1,11.4-11.4c0-1.2-0.2-2.3-0.5-3.4C297,35.8,295,37.2,292.6,37.2z"/><path id="XMLID_864_" class="st0" d="M324.4,2h15.1v50.4c0,4.3,0.4,7.4,1.2,9.2c0.8,1.8,2,3.2,3.8,4.3c1.8,1.1,3.9,1.6,6.4,1.6 c2.7,0,4.9-0.6,6.9-1.8c1.9-1.2,3.2-2.7,4-4.6c0.7-1.9,1.1-5.4,1.1-10.6V2h15.1v46.5c0,7.8-0.5,13.3-1.3,16.3 c-0.9,3-2.6,6-5.1,8.8c-2.5,2.8-5.4,4.9-8.8,6.3c-3.3,1.4-7.1,2-11.5,2c-5.7,0-10.7-1.3-15-3.9c-4.3-2.6-7.3-5.8-9.1-9.7 c-1.8-3.9-2.7-10.5-2.7-19.8V2z"/><path id="XMLID_862_" class="st0" d="M406.1,2h15.1v51.7c0,8.2-0.7,14-2,17.3c-1.3,3.3-3.5,6-6.6,7.9c-3.1,2-6.7,2.9-11,2.9 c-8.7,0-16.2-3.8-22.3-11.3l10.9-10c2.4,2.7,4.5,4.5,6.1,5.4c1.7,0.9,3.3,1.4,4.9,1.4c1.6,0,2.8-0.7,3.6-2 c0.8-1.3,1.2-4.3,1.2-8.8V2z"/><path id="XMLID_859_" class="st0" d="M452.4,2h15.3l30.5,77.9h-15.7l-6.2-16.1H444l-6.4,16.1h-15.7L452.4,2z M460.2,22.6 l-10.6,26.8h21.2L460.2,22.6z"/><path id="XMLID_857_" class="st0" d="M545.9,12.6l-11.2,9.7c-3.9-5.4-7.9-8.1-12-8.1c-2,0-3.6,0.5-4.9,1.6c-1.3,1-1.9,2.2-1.9,3.5 c0,1.3,0.4,2.5,1.3,3.7c1.2,1.6,4.9,4.9,11.1,10c5.8,4.7,9.2,7.7,10.5,9c3.1,3,5.2,5.9,6.5,8.7c1.3,2.8,1.9,5.8,1.9,9.1 c0,6.4-2.2,11.7-6.7,15.8c-4.5,4.2-10.4,6.3-17.6,6.3c-5.6,0-10.6-1.4-14.7-4.1s-7.8-7-10.8-12.8l12.7-7.5 c3.8,6.9,8.2,10.3,13.2,10.3c2.6,0,4.8-0.7,6.5-2.2c1.8-1.5,2.6-3.2,2.6-5.1c0-1.8-0.7-3.5-2-5.3c-1.3-1.8-4.3-4.5-8.8-8.1 c-8.6-6.9-14.2-12.3-16.7-16c-2.5-3.8-3.8-7.5-3.8-11.3c0-5.4,2.1-10,6.3-13.9C511.7,1.9,516.8,0,523,0c4,0,7.7,0.9,11.3,2.7 C537.9,4.5,541.7,7.8,545.9,12.6z"/><path id="XMLID_854_" class="st0" d="M180.4,104.5h10.1c5.6,0,9.5,0.5,11.9,1.5c2.4,1,4.3,2.6,5.7,4.9c1.4,2.3,2.2,4.9,2.2,8 c0,3.3-0.8,6-2.4,8.2c-1.6,2.2-4,3.8-7.2,5l11.9,22h-10.5L190.8,133h-0.9V154h-9.6V104.5z M189.9,123.8h3c3,0,5.1-0.4,6.3-1.2 c1.1-0.8,1.7-2.1,1.7-3.9c0-1.1-0.3-2-0.9-2.8c-0.6-0.8-1.3-1.4-2.3-1.7c-1-0.3-2.7-0.5-5.2-0.5h-2.6V123.8z"/><path id="XMLID_852_" class="st0" d="M220.4,104.5h27.5v9.2h-18v8.9h18v9h-18v13h18v9.2h-27.5V104.5z"/><path id="XMLID_850_" class="st0" d="M303.2,112.6l-6.7,6.6c-4.3-4.4-9.2-6.7-14.9-6.7c-5,0-9.1,1.6-12.4,4.8s-5,7.2-5,11.8 c0,4.8,1.7,8.8,5.2,12.1c3.5,3.3,7.7,5,12.8,5c3.3,0,6.1-0.7,8.4-2.1c2.3-1.4,4.1-3.5,5.5-6.4h-14.6v-8.8h25.3l0.1,2.1 c0,4.3-1.1,8.4-3.4,12.3s-5.2,6.8-8.9,8.9c-3.6,2-7.9,3.1-12.8,3.1c-5.2,0-9.9-1.1-14-3.3c-4.1-2.2-7.3-5.4-9.7-9.5 c-2.4-4.1-3.6-8.6-3.6-13.3c0-6.5,2.2-12.2,6.6-17.1c5.2-5.8,12-8.6,20.4-8.6c4.4,0,8.5,0.8,12.3,2.4 C297,107,300.1,109.3,303.2,112.6z"/><path id="XMLID_847_" class="st0" d="M315.6,104.5h27.5v9.2h-18v8.9h18v9h-18v13h18v9.2h-27.5V104.5z M329.3,91 c1.4,0,2.5,0.5,3.5,1.4c1,0.9,1.4,2.1,1.4,3.4c0,1.3-0.5,2.5-1.4,3.4c-1,0.9-2.1,1.4-3.5,1.4c-1.3,0-2.5-0.5-3.5-1.4 c-1-0.9-1.4-2.1-1.4-3.4c0-1.3,0.5-2.5,1.4-3.4S328,91,329.3,91z"/><path id="XMLID_845_" class="st0" d="M364.5,104.5h9.6v32.8c0,5.2-0.4,8.9-1.3,11c-0.8,2.1-2.2,3.8-4.2,5c-1.9,1.2-4.3,1.9-7,1.9 c-5.5,0-10.3-2.4-14.2-7.2l6.9-6.4c1.5,1.7,2.8,2.8,3.9,3.4c1.1,0.6,2.1,0.9,3.1,0.9c1,0,1.8-0.4,2.3-1.3c0.5-0.9,0.8-2.7,0.8-5.6 V104.5z"/><path id="XMLID_843_" class="st0" d="M384.9,104.5h9.5V154h-9.5V104.5z"/><path id="XMLID_841_" class="st0" d="M410.1,104.5h9.3l11.7,34.5l11.8-34.5h9.3l8.4,49.5h-9.3l-5.4-31.2L435.2,154h-8.4 l-10.6-31.2l-5.5,31.2h-9.3L410.1,104.5z"/><path id="XMLID_838_" class="st0" d="M483.6,104.5h9.7l19.3,49.5h-10l-3.9-10.2h-20.5l-4.1,10.2h-10L483.6,104.5z M488.5,117.6 l-6.7,17h13.5L488.5,117.6z"/><path id="XMLID_836_" class="st0" d="M546.4,111.2l-7.1,6.2c-2.5-3.4-5-5.1-7.6-5.1c-1.3,0-2.3,0.3-3.1,1 c-0.8,0.7-1.2,1.4-1.2,2.2c0,0.8,0.3,1.6,0.9,2.4c0.8,1,3.1,3.1,7,6.4c3.7,3,5.9,4.9,6.6,5.7c1.9,1.9,3.3,3.8,4.1,5.5 c0.8,1.8,1.2,3.7,1.2,5.8c0,4.1-1.4,7.4-4.3,10.1c-2.9,2.6-6.6,4-11.2,4c-3.6,0-6.7-0.9-9.4-2.6c-2.7-1.7-4.9-4.4-6.8-8.1l8-4.8 c2.4,4.4,5.2,6.6,8.4,6.6c1.6,0,3-0.5,4.1-1.4c1.1-0.9,1.7-2,1.7-3.3c0-1.1-0.4-2.2-1.3-3.4c-0.8-1.1-2.7-2.8-5.6-5.1 c-5.5-4.4-9-7.8-10.6-10.2c-1.6-2.4-2.4-4.8-2.4-7.1c0-3.4,1.3-6.4,4-8.8c2.7-2.5,5.9-3.7,9.8-3.7c2.5,0,4.9,0.6,7.2,1.7 C541.3,106.1,543.8,108.2,546.4,111.2z"/></g><g id="XMLID_828_"><path id="XMLID_834_" class="st0" d="M3,92.1c-0.9,5.6-3,11.4-3,17.3v45.5h43.1c6.2,0,11.5-2,17.4-3C35.7,139.6,14.9,117.4,3,92.1 z"/><path id="XMLID_833_" class="st0" d="M109.4,2.7c-6.2,0-12.3,0.7-18.3,1.8c24.4,11.8,44.8,31.7,56.6,56.2c1-5.8,2-11.6,2-17.6V2.7 H109.4z"/><path id="XMLID_830_" class="st0" d="M42.5,2.7H0v40.4c0,59.1,49.8,111.8,108.8,111.8h41v-45.5C149.8,50.4,101.5,2.7,42.5,2.7z M75.9,128.4c-28.1,0-50.8-22.7-50.8-50.8c0-28.1,22.7-50.8,50.8-50.8s50.8,22.7,50.8,50.8C126.8,105.7,104,128.4,75.9,128.4z"/><path id="XMLID_829_" class="st0" d="M87.2,77.6c-6.2,0-11.2-5-11.2-11.2c0-4.6,2.7-8.5,6.7-10.2c-2.1-0.6-4.3-1-6.7-1 c-12.4,0-22.5,10-22.5,22.5s10,22.5,22.5,22.5s22.5-10,22.5-22.5c0-2.3-0.4-4.6-1-6.7C95.7,74.9,91.8,77.6,87.2,77.6z"/></g></g></svg>